<?xml version="1.0" encoding="UTF-8" standalone="no"?>
<!-- Created with Inkscape (http://www.inkscape.org/) -->
<svg
   xmlns:dc="http://purl.org/dc/elements/1.1/"
   xmlns:cc="http://creativecommons.org/ns#"
   xmlns:rdf="http://www.w3.org/1999/02/22-rdf-syntax-ns#"
   xmlns:svg="http://www.w3.org/2000/svg"
   xmlns="http://www.w3.org/2000/svg"
   xmlns:sodipodi="http://sodipodi.sourceforge.net/DTD/sodipodi-0.dtd"
   xmlns:inkscape="http://www.inkscape.org/namespaces/inkscape"
   version="1.0"
   width="459.01947"
   height="140.53053"
   id="svg3381"
   sodipodi:version="0.32"
   inkscape:version="0.46"
   sodipodi:docname="Bloc Québécois.svg"
   inkscape:output_extension="org.inkscape.output.svg.inkscape">
  <metadata
     id="metadata2466">
    <rdf:RDF>
      <cc:Work
         rdf:about="">
        <dc:format>image/svg+xml</dc:format>
        <dc:type
           rdf:resource="http://purl.org/dc/dcmitype/StillImage" />
      </cc:Work>
    </rdf:RDF>
  </metadata>
  <sodipodi:namedview
     inkscape:window-height="721"
     inkscape:window-width="1024"
     inkscape:pageshadow="2"
     inkscape:pageopacity="0.0"
     guidetolerance="10.0"
     gridtolerance="10.0"
     objecttolerance="10.0"
     borderopacity="1.0"
     bordercolor="#666666"
     pagecolor="#ffffff"
     id="base"
     showgrid="false"
     inkscape:zoom="1.1851349"
     inkscape:cx="229.50974"
     inkscape:cy="70.265266"
     inkscape:window-x="-4"
     inkscape:window-y="-4"
     inkscape:current-layer="svg3381" />
  <defs
     id="defs3383">
    <inkscape:perspective
       sodipodi:type="inkscape:persp3d"
       inkscape:vp_x="0 : 70.265266 : 1"
       inkscape:vp_y="0 : 1000 : 0"
       inkscape:vp_z="459.01947 : 70.265266 : 1"
       inkscape:persp3d-origin="229.50974 : 46.843511 : 1"
       id="perspective2468" />
    <inkscape:perspective
       id="perspective2477"
       inkscape:persp3d-origin="372.04724 : 350.78739 : 1"
       inkscape:vp_z="744.09448 : 526.18109 : 1"
       inkscape:vp_y="0 : 1000 : 0"
       inkscape:vp_x="0 : 526.18109 : 1"
       sodipodi:type="inkscape:persp3d" />
  </defs>
  <g
     transform="translate(-146.20617,-463.1034)"
     id="layer1">
    <path
       d="M 285.69437,471.92006 L 312.36169,471.92006 C 317.89841,471.92013 322.23482,472.10451 325.37092,472.47322 C 328.50693,472.84205 331.26449,473.45935 333.64363,474.32509 C 337.4501,475.63991 342.34293,477.58798 344.5058,480.16932 C 346.66854,482.75078 347.74993,485.66087 347.74999,488.89958 C 347.74993,492.45909 346.41981,495.61769 343.75964,498.3754 C 341.09933,501.13323 335.11427,503.52222 329.62082,505.5424 L 329.62082,506.31201 C 337.1473,507.49853 344.54898,509.54281 348.00954,512.44485 C 351.46993,515.34694 353.20017,519.31524 353.20025,524.34975 C 353.20017,530.63492 350.22634,535.63737 344.2787,539.35715 C 338.33094,543.07694 328.36635,544.93682 318.20124,544.93682 L 285.69437,544.93682 L 285.69437,471.92006 z M 304.12142,512.517 L 304.12142,535.07619 L 315.02193,535.07619 C 320.94795,535.0762 325.44657,534.08212 328.51779,532.09396 C 331.58891,530.10581 333.1245,527.1877 333.12456,523.33964 C 333.1245,519.90848 331.58891,517.24692 328.51779,515.35494 C 325.44657,513.463 321.12098,512.51703 315.54099,512.517 L 304.12142,512.517 z M 304.12142,482.6946 L 304.12142,503.95508 L 312.49146,503.95508 C 317.33608,503.95512 321.14261,502.91294 323.91103,500.82853 C 326.67937,498.74422 328.06356,495.87422 328.0636,492.21852 C 328.06356,489.01187 326.91728,486.62288 324.62476,485.05153 C 322.33214,483.48031 318.87167,482.69467 314.24333,482.6946 L 304.12142,482.6946 z M 366.08562,471.92006 L 384.57756,471.92006 L 384.57756,533.48887 L 419.67978,533.48887 L 419.67978,544.93682 L 366.08562,544.93682 L 366.08562,471.92006 z M 425.14183,507.51452 C 425.14183,495.84216 428.52661,486.81528 435.29618,480.43387 C 442.06573,474.05259 455.43083,470.86192 467.75882,470.86184 C 479.95695,470.86192 491.35982,474.08466 498.15108,480.53007 C 504.94218,486.97561 508.33777,496.0025 508.33785,507.61073 C 508.33777,520.11692 505.02868,529.66489 498.4106,536.25466 C 491.79237,542.84445 480.303,546.13934 467.75882,546.13934 C 455.12805,546.13934 441.68723,542.85247 435.06908,536.27871 C 428.4509,529.70498 425.14183,520.11692 425.14183,507.51452 L 425.14183,507.51452 z M 467.62905,487.89004 C 455.94778,488.20323 448.39432,497.40983 447.83944,508.47654 C 447.79502,520.03157 456.40031,528.1134 467.62905,528.96685 C 479.41567,528.7018 486.87242,519.63066 487.41867,508.47654 C 487.43106,496.98409 478.82775,488.75864 467.62905,487.89004 L 467.62905,487.89004 z M 585.19883,476.58582 L 585.19883,491.35272 C 525.92413,462.07173 520.80692,551.59472 585.19883,525.11936 L 585.19883,540.51157 C 581.69503,542.40353 577.9642,543.81448 574.00635,544.74443 C 570.04836,545.67436 565.82009,546.13934 561.32152,546.13934 C 547.3498,546.13934 536.46012,542.79635 528.65244,536.11036 C 520.84472,529.42438 516.94088,520.11692 516.94088,508.18794 C 516.94088,496.9645 520.75821,487.92159 528.39291,481.05918 C 536.02756,474.1969 545.98724,470.76571 558.27197,470.76564 C 562.55427,470.76571 566.91231,471.2387 571.34611,472.18461 C 575.77978,473.13067 580.39735,474.59773 585.19883,476.58582 L 585.19883,476.58582 z"
       id="text3404"
       style="font-size:119.91794586px;font-style:normal;font-weight:normal;line-height:125%;fill:#a90022;fill-opacity:1;stroke:none;stroke-width:1px;stroke-linecap:butt;stroke-linejoin:miter;stroke-opacity:1;font-family:Bitstream Vera Sans" />
    <path
       d="M 284.542,576.54068 C 284.54199,570.27899 286.06819,565.43648 289.1206,562.01316 C 292.17299,558.5899 296.47853,556.87824 302.03722,556.87821 C 307.53738,556.87824 311.81853,558.6071 314.88071,562.06477 C 317.94284,565.5225 319.47391,570.365 319.47395,576.59228 C 319.47391,583.30129 317.98185,588.42333 314.99775,591.95843 C 312.01357,595.49354 307.69341,597.26111 302.03722,597.26111 C 296.342,597.26111 292.00233,595.49785 289.01821,591.97133 C 286.03407,588.44483 284.54199,583.30129 284.542,576.54068 L 284.542,576.54068 z M 301.97871,564.85028 C 299.1701,564.85031 295.07258,566.08889 293.50251,568.56602 C 291.93241,571.04321 291.14737,572.60132 291.14738,577.05676 C 291.14737,581.54662 291.92753,583.10474 293.48788,585.54749 C 295.04819,587.99025 299.1506,589.21162 301.97871,589.21162 C 304.8263,589.21162 308.93357,587.99455 310.48419,585.56039 C 312.03474,583.12626 312.81002,581.56383 312.81005,577.05676 C 312.81002,572.60132 312.02498,571.04321 310.45493,568.56602 C 308.88482,566.08889 304.78729,564.85031 301.97871,564.85028 L 301.97871,564.85028 z M 326.17363,582.29492 L 326.17363,557.44589 L 334.51165,557.44589 L 334.51165,582.99162 C 334.51164,585.88166 335.06263,587.95026 336.16463,589.19742 C 337.2666,590.44461 339.07561,591.06821 341.59166,591.0682 C 344.12718,591.06821 345.94594,590.44032 347.04794,589.18453 C 348.14991,587.92876 348.7009,585.86446 348.70092,582.99162 L 348.70092,557.44589 L 357.03896,557.44589 L 357.03896,582.29492 C 357.03892,585.04733 356.82437,587.16324 356.39531,588.64265 C 355.96619,590.12208 355.26404,591.42086 354.28886,592.53901 C 352.96256,594.03564 351.20231,595.1968 349.00812,596.02253 C 346.81387,596.84824 344.36123,597.26111 341.65017,597.26111 C 338.88057,597.26111 336.39378,596.85254 334.18983,596.03543 C 331.98586,595.21831 330.21097,594.05284 328.8652,592.53901 C 327.90949,591.43806 327.22197,590.16508 326.80264,588.72006 C 326.38329,587.27505 326.17362,585.13335 326.17363,582.29492 L 326.17363,582.29492 z M 365.25996,557.44589 L 390.56661,557.44589 L 390.56661,563.6388 L 373.59798,563.6388 L 373.59798,573.16039 L 388.63569,573.16039 L 388.63569,578.7598 L 373.59798,578.7598 L 373.59798,590.52633 L 391.09321,590.52633 L 391.09321,596.61601 L 365.25996,596.61601 L 365.25996,557.44589 z M 379.70533,550.4551 L 389.47692,550.4551 L 389.47692,551.87431 C 387.56547,552.61407 385.73209,553.48279 383.97674,554.48048 C 382.22135,555.47827 380.58299,556.58784 379.06168,557.80917 L 373.64929,557.80917 L 373.64929,556.85444 C 374.85853,555.95995 375.96539,554.9837 376.96986,553.92571 C 377.97432,552.8678 378.88613,551.71093 379.70533,550.4551 L 379.70533,550.4551 z M 398.99239,557.44589 L 411.01671,557.44589 C 413.51323,557.44592 415.46851,557.54484 416.88259,557.74263 C 418.29662,557.94049 419.54001,558.27165 420.61276,558.73608 C 422.3291,559.44141 423.67488,560.48647 424.65012,561.87124 C 425.62529,563.25607 426.1129,564.8172 426.11293,566.55461 C 426.1129,568.46412 425.51315,570.15858 424.31367,571.63796 C 423.11414,573.1174 421.27587,574.39898 418.79888,575.48273 L 418.79888,575.89558 C 422.19257,576.5321 424.66959,577.62875 426.22995,579.18557 C 427.79025,580.74241 428.57041,582.87121 428.57046,585.57201 C 428.57041,588.94369 427.22951,591.62728 424.54772,593.62278 C 421.86587,595.61826 418.23322,596.61601 413.64978,596.61601 L 398.99239,596.61601 L 398.99239,557.44589 z M 407.30117,579.22427 L 407.30117,591.32624 L 412.21622,591.32624 C 414.88827,591.32625 416.91669,590.79296 418.30151,589.72641 C 419.68629,588.65986 420.37869,587.09444 420.37871,585.03012 C 420.37869,583.18947 419.68629,581.76165 418.30151,580.7467 C 416.91669,579.73176 414.96628,579.22428 412.45027,579.22427 L 407.30117,579.22427 z M 407.30117,563.22593 L 407.30117,574.6312 L 411.07523,574.6312 C 413.25967,574.63122 414.97604,574.07215 416.22432,572.95395 C 417.47257,571.83582 418.0967,570.29619 418.09673,568.33508 C 418.0967,566.61486 417.57984,565.33328 416.54614,564.49032 C 415.51239,563.64742 413.95206,563.22596 411.86514,563.22593 L 407.30117,563.22593 z M 435.24087,557.44589 L 460.54751,557.44589 L 460.54751,563.6388 L 443.57889,563.6388 L 443.57889,573.16039 L 458.61661,573.16039 L 458.61661,578.7598 L 443.57889,578.7598 L 443.57889,590.52633 L 461.07413,590.52633 L 461.07413,596.61601 L 435.24087,596.61601 L 435.24087,557.44589 z M 450.34768,550.23463 L 460.11926,550.23463 L 460.11926,551.65384 C 458.20783,552.39359 456.37444,553.26232 454.61908,554.26001 C 452.8637,555.2578 451.22535,556.36736 449.70404,557.5887 L 444.29163,557.5887 L 444.29163,556.63395 C 445.50088,555.73947 446.60774,554.76323 447.61222,553.70523 C 448.61667,552.64733 449.52849,551.49045 450.34768,550.23463 L 450.34768,550.23463 z M 497.41038,559.94886 L 497.41038,567.87062 L 494.2507,567.87062 C 493.19745,566.04718 492.04184,564.74409 490.78384,563.96134 C 489.5258,563.17865 487.98009,562.78731 486.14673,562.78727 C 482.73348,562.78731 480.03216,564.03448 478.04275,566.52881 C 476.05332,569.02321 475.05861,572.44651 475.05862,576.79872 C 475.05861,581.15096 476.04844,584.60867 478.02813,587.17184 C 480.00777,589.73501 482.65546,591.0166 485.9712,591.0166 C 487.96059,591.0166 489.63307,590.60374 490.98863,589.77802 C 492.34414,588.9523 493.43151,587.68792 494.2507,585.98486 L 497.41038,585.98486 L 497.41038,594.24206 C 495.83051,595.25701 494.14828,596.01392 492.36368,596.5128 C 490.57902,597.01168 488.67249,597.26111 486.64408,597.26111 C 480.34422,597.26111 475.43406,595.46775 471.91356,591.88102 C 468.39307,588.29431 466.63282,583.30129 466.63282,576.90193 C 466.63282,570.88107 468.35406,566.02997 471.79654,562.3486 C 475.23902,558.6673 479.72985,556.82664 485.26905,556.8266 C 487.19993,556.82664 489.16496,557.08037 491.16418,557.58781 C 493.16331,558.09532 495.24538,558.88234 497.41038,559.94886 L 497.41038,559.94886 z M 503.61269,576.54068 C 503.61269,570.27899 505.1389,565.43648 508.1913,562.01316 C 511.24369,558.5899 515.54923,556.87824 521.10792,556.87821 C 526.60808,556.87824 530.88923,558.6071 533.95142,562.06477 C 537.01354,565.5225 538.54461,570.365 538.54465,576.59228 C 538.54461,583.30129 537.05255,588.42333 534.06844,591.95843 C 531.08428,595.49354 526.76411,597.26111 521.10792,597.26111 C 515.4127,597.26111 511.07303,595.49785 508.0889,591.97133 C 505.10476,588.44483 503.61269,583.30129 503.61269,576.54068 L 503.61269,576.54068 z M 521.04942,564.85028 C 518.2408,564.85031 514.14328,566.08889 512.57321,568.56602 C 511.00312,571.04321 510.21806,572.60132 510.21807,577.05676 C 510.21806,581.54662 510.99824,583.10474 512.55858,585.54749 C 514.11889,587.99025 518.2213,589.21162 521.04942,589.21162 C 523.897,589.21162 528.00428,587.99455 529.55488,585.56039 C 531.10544,583.12626 531.88073,581.56383 531.88076,577.05676 C 531.88073,572.60132 531.09569,571.04321 529.52563,568.56602 C 527.95551,566.08889 523.85799,564.85031 521.04942,564.85028 L 521.04942,564.85028 z M 545.24433,557.44589 L 553.58236,557.44589 L 553.58236,596.61601 L 545.24433,596.61601 L 545.24433,557.44589 z M 559.40433,586.13969 L 562.94433,586.13969 C 564.09506,587.79113 565.49449,588.99961 567.1426,589.76511 C 568.79069,590.53063 570.8045,590.91338 573.18402,590.91338 C 575.79755,590.91338 577.81135,590.47042 579.22543,589.58449 C 580.63945,588.69856 581.34649,587.44708 581.34651,585.83004 C 581.34649,583.64533 578.46962,581.60684 572.71591,579.71454 L 572.24782,579.53392 C 567.56681,578.02011 564.39739,576.45899 562.73955,574.85053 C 561.08168,573.24212 560.25276,571.10471 560.25277,568.4383 C 560.25276,565.03223 561.65218,562.27123 564.45102,560.15528 C 567.24987,558.03942 570.88251,556.98146 575.34898,556.98142 C 577.33838,556.98146 579.30342,557.17069 581.24411,557.5491 C 583.18475,557.92761 585.17904,558.51249 587.22701,559.30376 L 587.22701,567.07069 L 584.27213,567.07069 C 583.33591,565.60851 582.19004,564.51185 580.83452,563.78072 C 579.47897,563.04964 577.91375,562.68408 576.1389,562.68406 C 574.16895,562.68408 572.51598,563.17435 571.17996,564.15487 C 569.84392,565.13544 569.17591,566.32242 569.17592,567.71579 C 569.17591,569.84892 571.73094,571.7326 576.84105,573.36682 C 577.40664,573.55607 577.82599,573.69369 578.09906,573.77968 C 582.50698,575.24191 585.61789,576.86755 587.4318,578.65659 C 589.24566,580.44567 590.1526,582.7508 590.15264,585.57201 C 590.1526,588.94369 588.70442,591.7047 585.80809,593.85501 C 582.91169,596.00533 579.14252,597.08048 574.50055,597.08048 C 571.47739,597.08048 568.71755,596.75363 566.22103,596.09994 C 563.72449,595.44624 561.45227,594.4571 559.40433,593.1325 L 559.40433,586.13969 z"
       id="text3409"
       style="font-size:176.93431090999999000px;font-style:normal;font-weight:normal;line-height:125%;fill:#07b1e5;fill-opacity:1;stroke:none;stroke-width:1px;stroke-linecap:butt;stroke-linejoin:miter;stroke-opacity:1;font-family:Bitstream Vera Sans" />
    <path
       d="M 311.24398,593.87493 C 315.53194,595.67043 320.25829,600.60458 325.57527,597.62312 C 323.83415,607.83761 315.12031,601.89696 304.40905,596.30023 L 311.24398,593.87493 z"
       id="path3414"
       style="fill:#07b1e5;fill-opacity:1;fill-rule:evenodd;stroke:#000000;stroke-width:0;stroke-linecap:butt;stroke-linejoin:miter;stroke-miterlimit:4;stroke-dasharray:none;stroke-opacity:1" />
    <path
       d="M 215.60324,510.29362 C 231.76665,473.74781 252.26219,487.02137 270.75809,477.29919 C 257.09178,523.68718 234.06569,499.87676 215.60324,510.29362 z"
       id="path3925"
       style="fill:#003672;fill-opacity:1;fill-rule:evenodd;stroke:#000000;stroke-width:0;stroke-linecap:butt;stroke-linejoin:miter;stroke-miterlimit:4;stroke-dasharray:none;stroke-opacity:1" />
    <path
       d="M 172.26727,478.77655 C 205.70599,444.6311 240.19751,511.40284 193.93525,517.18796 C 208.25136,496.32129 190.75759,475.3831 172.26727,478.77655 z"
       id="path3927"
       style="fill:#003672;fill-opacity:1;fill-rule:evenodd;stroke:#000000;stroke-width:0;stroke-linecap:butt;stroke-linejoin:miter;stroke-miterlimit:4;stroke-dasharray:none;stroke-opacity:1" />
    <path
       d="M 197.38243,525.53532 C 237.54625,484.52262 278.97461,564.72331 223.40821,571.67192 C 240.60355,546.6086 219.59147,521.45938 197.38243,525.53532 z"
       id="path3931"
       style="fill:#003672;fill-opacity:1;fill-rule:evenodd;stroke:#000000;stroke-width:0;stroke-linecap:butt;stroke-linejoin:miter;stroke-miterlimit:4;stroke-dasharray:none;stroke-opacity:1" />
    <path
       d="M 168.32764,480.74636 C 178.46382,513.05346 197.55626,543.12147 218.0655,572.83529 C 209.42894,580.01768 201.97833,587.67444 199.8447,597.45799 C 198.47847,603.37762 196.11345,603.30453 193.44279,601.39762 C 173.33355,557.97261 128.12693,503.93164 168.32764,480.74636 z"
       id="path3933"
       style="fill:#003672;fill-opacity:1;fill-rule:evenodd;stroke:#000000;stroke-width:0;stroke-linecap:butt;stroke-linejoin:miter;stroke-miterlimit:4;stroke-dasharray:none;stroke-opacity:1" />
  </g>
</svg>
