<?xml version="1.0" encoding="UTF-8" standalone="no"?>
<svg
   xmlns:dc="http://purl.org/dc/elements/1.1/"
   xmlns:cc="http://creativecommons.org/ns#"
   xmlns:rdf="http://www.w3.org/1999/02/22-rdf-syntax-ns#"
   xmlns:svg="http://www.w3.org/2000/svg"
   xmlns="http://www.w3.org/2000/svg"
   viewBox="0 0 10276.707 1331.4399"
   height="113.8239"
   width="878.549"
   xml:space="preserve"
   id="svg2"
   version="1.1"><metadata
     id="metadata8"><rdf:RDF><cc:Work
         rdf:about=""><dc:format>image/svg+xml</dc:format><dc:type
           rdf:resource="http://purl.org/dc/dcmitype/StillImage" /></cc:Work></rdf:RDF></metadata><defs
     id="defs6" /><g
     transform="matrix(1.3333333,0,0,-1.3333333,0,1331.44)"
     id="g10"><g
       transform="scale(0.1)"
       id="g12"><path
         id="path14"
         style="fill:#103d6b;fill-opacity:1;fill-rule:nonzero;stroke:none"
         d="M 10018.1,0 H 0 L 1701.23,9985.82 H 11719.4 L 10018.1,0" /><path
         id="path16"
         style="fill:#ee2850;fill-opacity:1;fill-rule:nonzero;stroke:none"
         d="m 6270.19,4376.08 917.31,435.26 -187.98,92.48 370.83,444.3 -523.76,-111.76 37.76,233.34 -526.26,-414.77 c -3.99,-4.18 -9.05,-6.61 -14.5,-6.61 -9.91,0 -16.25,7.28 -14.83,16.85 0.61,3.64 2.7,6.74 5.19,9.71 l 390.51,688.68 -261.16,-109.45 -50.76,430.41 -393.88,-431.76 -174.7,108.25 -162.1,-692.2 c 0,-0.54 0.35,-1.76 0,-2.42 -1.75,-11.46 -12.67,-20.5 -24.39,-20.5 -9.11,0 -15.71,5.4 -17.53,13.35 l -198.63,405.62 -148.08,-232.8 -436.21,108.23 18.21,-442.54 -262.73,-94.35 562.25,-422.6 v -0.54 c 8.77,-6.07 13.54,-16.32 11.38,-28.98 -1.75,-12.14 -10.16,-22.91 -21.08,-28.99 l -233.01,-209.88 680.07,80.47 -227.88,-536.22 h 119.64 l 200.1,531.37 613.32,-71.3 -68.59,213.38 c -3.65,5.38 -5.13,11.6 -4.26,18.73 2.37,12.82 13.01,23.6 25.75,27.24" /><path
         id="path18"
         style="fill:#ffffff;fill-opacity:1;fill-rule:nonzero;stroke:none"
         d="m 5447.38,2485.66 c -279.98,-163.78 -381.75,-168.1 -550.18,-154.07 -231.59,18.59 -559.75,279.16 -675.55,800.29 -192.89,868.79 59.31,2008.91 641.38,3066.28 777.99,1412.82 2011.94,2302.1 3067.49,2324.47 -5.74,0 -11.19,0 -16.93,0 l -1892.23,-1.21 c -1072.2,21.17 -2427.2,-877.15 -3224.27,-2323.8 -583.67,-1059.8 -781.42,-2179.44 -613.34,-3054.15 44.42,-231.03 154.82,-459.66 281.74,-628.83 115.79,-154.76 363.01,-433.38 665.84,-559.69 232.8,-96.78 607.87,-163.92 974.52,-115.39 540.82,81.43 1341.53,646.1 1341.53,646.1" /><path
         id="path20"
         style="fill:#ffffff;fill-opacity:1;fill-rule:nonzero;stroke:none"
         d="m 9664.3,6236.17 c 5.19,247.36 -13.89,482.45 -56.82,705 -44.08,230.91 -154.75,459.39 -281.73,629.25 -115.72,154.21 -396.24,441.33 -665.56,559.14 -305.53,133.72 -662.89,162.7 -974.81,116.2 C 7203,8207.07 6344.2,7598.85 6344.2,7598.85 c 279.91,164.47 381.75,168.64 549.85,154.75 231.86,-19.27 559.74,-279.98 675.61,-800.97 72.24,-325.8 82.16,-695.83 35.38,-1079.75 l 2059.26,363.29" /><path
         id="path22"
         style="fill:#ffffff;fill-opacity:1;fill-rule:nonzero;stroke:none"
         d="m 9262.94,4429.86 c -80.15,-199.5 -140.61,-310.04 -268.73,-542.83 -76.16,-138.58 -158.05,-271.49 -244.85,-399.14 C 7931.18,2282.52 6689.41,1571.73 5740.84,1563.09 l -1863.13,-1.21 c -5.45,0 -11.18,0.68 -16.98,0.68 1055.88,22.37 2289.76,910.96 3067.48,2323.78 25.01,45.43 49.28,87.09 73.06,132.39 l 9.44,1.21 2252.23,409.92" /><g
         transform="scale(1.1387)"
         id="g24"><path
           id="path26"
           style="fill:#103d6b;fill-opacity:1;fill-rule:nonzero;stroke:none"
           d="m 15499.7,5265.71 c -156.4,222.56 -409.1,348.98 -758.1,348.98 -710,0 -1317.8,-577.64 -1426.1,-1371.86 -114.2,-794.35 331,-1371.99 1010.8,-1371.99 379.2,0 710.2,168.5 938.7,457.33 l 704.1,-583.62 c -427.2,-505.4 -1065.1,-740.17 -1648.7,-740.17 -1329.8,0 -2172.2,872.56 -1979.7,2238.45 192.6,1365.87 1281.8,2238.32 2611.5,2238.32 475.4,0 1053.1,-162.54 1347.8,-625.85 l -800.3,-589.59" /></g><g
         transform="scale(1.54767)"
         id="g28"><path
           id="path30"
           style="fill:#103d6b;fill-opacity:1;fill-rule:nonzero;stroke:none"
           d="m 14325.6,2112.22 c 588.7,0 1031.4,425 1115.6,1009.45 79.6,584.35 -243.6,1009.34 -832.3,1009.34 -588.8,0 -1036,-424.99 -1115.6,-1009.34 -84.2,-584.45 243.4,-1009.45 832.3,-1009.45 z m 371.9,2656.29 c 978.3,0 1602.5,-641.9 1460.9,-1646.84 -141.7,-1004.96 -947.5,-1646.94 -1925.8,-1646.94 -978.4,0 -1598.2,641.98 -1456.5,1646.94 141.7,1004.94 943,1646.84 1921.4,1646.84" /></g><g
         transform="scale(1.94485)"
         id="g32"><path
           id="path34"
           style="fill:#103d6b;fill-opacity:1;fill-rule:nonzero;stroke:none"
           d="M 13936.2,3731.24 H 14683 L 15496.8,1998 h 7.1 l 246.6,1733.24 H 16300 L 15947.7,1237 H 15229 l -838.4,1775.61 h -7 L 14133.4,1237 h -549.6 l 352.4,2494.24" /></g><g
         transform="scale(2.25713)"
         id="g36"><path
           id="path38"
           style="fill:#103d6b;fill-opacity:1;fill-rule:nonzero;stroke:none"
           d="m 15923.6,2689.86 c -60.7,97.13 -206.4,142.69 -321.8,142.69 -133.6,0 -327.8,-60.7 -349.1,-221.61 -57.6,-391.56 968.4,-139.61 862.2,-892.46 -66.9,-479.59 -485.7,-707.29 -929,-707.29 -276.2,0 -506.9,82 -682.9,270.17 l 388.5,370.33 c 78.9,-127.48 227.7,-203.38 385.6,-203.38 154.8,0 336.9,72.88 358.2,224.62 54.5,394.64 -980.5,182.15 -880.4,898.55 63.8,458.36 494.8,698.19 916.7,698.19 242.9,0 467.6,-63.78 628.4,-224.63 l -376.4,-355.18" /></g><g
         transform="scale(2.57741)"
         id="g40"><path
           id="path42"
           style="fill:#103d6b;fill-opacity:1;fill-rule:nonzero;stroke:none"
           d="M 15021.4,2815.5 H 16300 l -55.8,-382.8 h -864 l -47.8,-350.89 h 816.1 l -55.8,-382.8 h -816.1 l -53.3,-382.8 h 911.9 l -53.2,-382.8 h -1326.5 l 265.9,1882.09" /></g><g
         transform="scale(2.9456)"
         id="g44"><path
           id="path46"
           style="fill:#103d6b;fill-opacity:1;fill-rule:nonzero;stroke:none"
           d="m 15325.4,1782.06 h 214 c 132.6,0 307,4.62 330.3,183.72 23.3,165.2 -121,190.76 -253.6,190.76 h -237.2 z m -265.2,681.51 h 637.3 c 337.4,0 602.5,-116.27 549,-500.09 -32.6,-230.29 -179.1,-409.39 -418.7,-451.28 l 321,-695.463 h -434.9 l -251.2,658.253 h -179.2 l -93.1,-658.253 h -362.8 l 232.6,1646.833" /></g><g
         transform="scale(3.31128)"
         id="g48"><path
           id="path50"
           style="fill:#103d6b;fill-opacity:1;fill-rule:nonzero;stroke:none"
           d="m 14851.6,2191.51 h 368.2 l 225.6,-960.1 h 4.1 l 504.9,960.1 H 16300 L 15488.8,726.542 h -258.6 l -378.6,1464.968" /></g><g
         transform="scale(3.59792)"
         id="g52"><path
           id="path54"
           style="fill:#103d6b;fill-opacity:1;fill-rule:nonzero;stroke:none"
           d="m 15717.3,1624.64 -222.8,-418.97 h 329.4 z m -59.1,392.27 h 245.7 L 16300,668.659 h -335.2 l -76.1,285.651 H 15365 l -152.4,-285.651 h -327.5 l 773.1,1348.251" /></g><g
         transform="scale(3.89171)"
         id="g56"><path
           id="path58"
           style="fill:#103d6b;fill-opacity:1;fill-rule:nonzero;stroke:none"
           d="m 15634.5,1621.7 h -355.6 l 35.2,242.95 h 985.9 l -35.2,-242.95 h -355.6 L 15768.3,618.181 h -274.6 l 140.8,1003.519" /></g><g
         transform="scale(4.06319)"
         id="g60"><path
           id="path62"
           style="fill:#103d6b;fill-opacity:1;fill-rule:nonzero;stroke:none"
           d="M 16036.9,1785.96 H 16300 L 16131.4,592.092 h -263.1 l 168.6,1193.868" /></g><g
         transform="scale(4.44021)"
         id="g64"><path
           id="path66"
           style="fill:#103d6b;fill-opacity:1;fill-rule:nonzero;stroke:none"
           d="m 15219.8,1634.31 h 274.7 l 168.2,-715.99 h 3.1 l 376.5,715.99 H 16300 L 15695.1,541.816 h -192.9 l -282.4,1092.494" /></g><g
         transform="scale(4.72853)"
         id="g68"><path
           id="path70"
           style="fill:#103d6b;fill-opacity:1;fill-rule:nonzero;stroke:none"
           d="m 15603.1,1534.66 h 697 l -30.5,-208.65 h -470.9 l -26.1,-191.26 h 444.9 L 16187,926.089 h -444.8 l -29,-208.654 h 497 l -29,-208.655 h -723 l 144.9,1025.88" /></g></g></g></svg>