<?xml version="1.0" encoding="UTF-8" standalone="no"?>
<!-- Created with Inkscape (http://www.inkscape.org/) -->

<svg
   xmlns:dc="http://purl.org/dc/elements/1.1/"
   xmlns:cc="http://creativecommons.org/ns#"
   xmlns:rdf="http://www.w3.org/1999/02/22-rdf-syntax-ns#"
   xmlns:svg="http://www.w3.org/2000/svg"
   xmlns="http://www.w3.org/2000/svg"
   version="1.1"
   width="128.88498"
   height="38.371624"
   id="svg3888">
  <defs
     id="defs3890">
    <clipPath
       id="clipPath3280">
      <path
         d="M 0,0 612,0 612,792 0,792 0,0 z"
         id="path3282" />
    </clipPath>
    <clipPath
       id="clipPath3268">
      <path
         d="M 0,0 612,0 612,792 0,792 0,0 z"
         id="path3270" />
    </clipPath>
    <clipPath
       id="clipPath3256">
      <path
         d="M 0,0 612,0 612,792 0,792 0,0 z"
         id="path3258" />
    </clipPath>
    <clipPath
       id="clipPath3228">
      <path
         d="M 0,0 612,0 612,792 0,792 0,0 z"
         id="path3230" />
    </clipPath>
    <clipPath
       id="clipPath3216">
      <path
         d="M 0,0 612,0 612,792 0,792 0,0 z"
         id="path3218" />
    </clipPath>
    <clipPath
       id="clipPath3204">
      <path
         d="M 0,0 612,0 612,792 0,792 0,0 z"
         id="path3206" />
    </clipPath>
    <clipPath
       id="clipPath3192">
      <path
         d="M 0,0 612,0 612,792 0,792 0,0 z"
         id="path3194" />
    </clipPath>
    <clipPath
       id="clipPath3180">
      <path
         d="M 0,0 612,0 612,792 0,792 0,0 z"
         id="path3182" />
    </clipPath>
    <clipPath
       id="clipPath3168">
      <path
         d="M 0,0 612,0 612,792 0,792 0,0 z"
         id="path3170" />
    </clipPath>
    <clipPath
       id="clipPath3156">
      <path
         d="M 0,0 612,0 612,792 0,792 0,0 z"
         id="path3158" />
    </clipPath>
    <clipPath
       id="clipPath3144">
      <path
         d="M 0,0 612,0 612,792 0,792 0,0 z"
         id="path3146" />
    </clipPath>
    <clipPath
       id="clipPath3132">
      <path
         d="M 0,0 612,0 612,792 0,792 0,0 z"
         id="path3134" />
    </clipPath>
    <clipPath
       id="clipPath3118">
      <path
         d="M 0,0 612,0 612,792 0,792 0,0 z"
         id="path3120" />
    </clipPath>
    <clipPath
       id="clipPath3106">
      <path
         d="M 0,0 612,0 612,792 0,792 0,0 z"
         id="path3108" />
    </clipPath>
    <clipPath
       id="clipPath3094">
      <path
         d="M 0,0 612,0 612,792 0,792 0,0 z"
         id="path3096" />
    </clipPath>
  </defs>
  <metadata
     id="metadata3893">
    <rdf:RDF>
      <cc:Work
         rdf:about="">
        <dc:format>image/svg+xml</dc:format>
        <dc:type
           rdf:resource="http://purl.org/dc/dcmitype/StillImage" />
        <dc:title></dc:title>
      </cc:Work>
    </rdf:RDF>
  </metadata>
  <g
     transform="translate(-232.76333,-538.2016)"
     id="layer1">
    <g
       transform="matrix(1.25,0,0,-1.25,243.28582,567.77136)"
       id="g3084">
      <path
         d="m 0,0 5.821,0 0,-1.15 -3.62,0 0,-1.253 3.418,0 0,-1.149 -3.418,0 0,-1.377 3.749,0 0,-1.149 -5.95,0 L 0,0 z"
         id="path3086"
         style="fill:#000000;fill-opacity:1;fill-rule:nonzero;stroke:none" />
    </g>
    <path
       d="m 251.58069,566.05562 2.66,0 0,9.31375 -2.66,0 0,-9.31375 z"
       id="path3088"
       style="fill:#000000;fill-opacity:1;fill-rule:nonzero;stroke:none" />
    <g
       transform="matrix(1.25,0,0,-1.25,189.12444,1455.4756)"
       id="g3090">
      <g
         clip-path="url(#clipPath3094)"
         id="g3092">
        <g
           transform="translate(54.979507,705.897)"
           id="g3098">
          <path
             d="m 0,0 c 0.118,-0.626 0.771,-0.87 1.811,-0.87 0.577,0 1.238,0.094 1.88,0.347 l 0,-1.105 C 3.004,-1.829 2.224,-1.916 1.434,-1.916 c -2.036,0 -3.587,0.88 -3.587,2.375 0,1.499 1.385,2.37 3.302,2.37 2.282,0 3.111,-1.193 3.111,-2.544 L 4.26,0 0,0 z m 2.343,0.888 c 0,0.523 -0.331,0.949 -1.182,0.949 -0.771,0 -1.14,-0.426 -1.184,-0.949 l 2.366,0 z"
             id="path3100"
             style="fill:#000000;fill-opacity:1;fill-rule:nonzero;stroke:none" />
        </g>
      </g>
    </g>
    <g
       transform="matrix(1.25,0,0,-1.25,189.12444,1455.4756)"
       id="g3102">
      <g
         clip-path="url(#clipPath3106)"
         id="g3104">
        <g
           transform="translate(64.618805,707.325)"
           id="g3110">
          <path
             d="m 0,0 c -0.389,0.174 -0.784,0.252 -1.293,0.252 -0.923,0 -1.632,-0.469 -1.632,-1.253 0,-0.723 0.83,-1.195 1.753,-1.195 0.48,0 0.97,0.08 1.324,0.219 L 0.2,-3.145 c -0.532,-0.129 -1.171,-0.199 -1.74,-0.199 -2.035,0 -3.585,0.871 -3.585,2.369 0,1.505 1.55,2.376 3.585,2.376 0.64,0 1.208,-0.079 1.692,-0.253 L 0,0 z"
             id="path3112"
             style="fill:#000000;fill-opacity:1;fill-rule:nonzero;stroke:none" />
        </g>
      </g>
    </g>
    <g
       transform="matrix(1.25,0,0,-1.25,189.12444,1455.4756)"
       id="g3114">
      <g
         clip-path="url(#clipPath3118)"
         id="g3116">
        <g
           transform="translate(65.160904,708.6212)"
           id="g3122">
          <path
             d="m 0,0 1.256,0 0,1.019 2.094,0.478 0,-1.497 1.49,0 0,-1.097 -1.49,0 0,-1.673 c 0,-0.547 0.179,-0.824 0.85,-0.824 0.213,0 0.439,0.032 0.653,0.06 l 0.07,-1.019 C 4.522,-4.588 4.116,-4.641 3.585,-4.641 c -1.904,0 -2.365,0.62 -2.365,1.697 l 0,1.847 -1.22,0 L 0,0 z"
             id="path3124"
             style="fill:#000000;fill-opacity:1;fill-rule:nonzero;stroke:none" />
        </g>
      </g>
    </g>
    <path
       d="m 277.55069,570.20937 2.6625,0 0,5.16 -2.6625,0 0,-5.16 z m 2.6625,-0.92375 -2.6625,0 0,-1.4375 2.6625,0 0,1.4375 z"
       id="path3126"
       style="fill:#000000;fill-opacity:1;fill-rule:nonzero;stroke:none" />
    <g
       transform="matrix(1.25,0,0,-1.25,189.12444,1455.4756)"
       id="g3128">
      <g
         clip-path="url(#clipPath3132)"
         id="g3130">
        <g
           transform="translate(73.353394,706.34959)"
           id="g3136">
          <path
             d="M 0,0 C 0,1.506 1.554,2.376 3.587,2.376 5.624,2.376 7.171,1.506 7.171,0 7.171,-1.498 5.624,-2.369 3.587,-2.369 1.554,-2.369 0,-1.498 0,0 m 4.971,0 c 0,0.679 -0.401,1.279 -1.384,1.279 -0.98,0 -1.384,-0.6 -1.384,-1.279 0,-0.672 0.404,-1.271 1.384,-1.271 0.983,0 1.384,0.599 1.384,1.271"
             id="path3138"
             style="fill:#000000;fill-opacity:1;fill-rule:nonzero;stroke:none" />
        </g>
      </g>
    </g>
    <g
       transform="matrix(1.25,0,0,-1.25,189.12444,1455.4756)"
       id="g3140">
      <g
         clip-path="url(#clipPath3144)"
         id="g3142">
        <g
           transform="translate(80.760498,708.6212)"
           id="g3148">
          <path
             d="m 0,0 1.942,0 0,-0.836 0.024,0 c 0.425,0.654 1.279,0.94 2.245,0.94 1.685,0 2.354,-0.87 2.354,-1.809 l 0,-2.831 -2.126,0 0,2.195 c 0,0.851 -0.404,1.139 -0.981,1.139 -0.877,0 -1.327,-0.444 -1.327,-1.418 l 0,-1.916 L 0,-4.536 0,0 z"
             id="path3150"
             style="fill:#000000;fill-opacity:1;fill-rule:nonzero;stroke:none" />
        </g>
      </g>
    </g>
    <g
       transform="matrix(1.25,0,0,-1.25,189.12444,1455.4756)"
       id="g3152">
      <g
         clip-path="url(#clipPath3156)"
         id="g3154">
        <g
           transform="translate(88.121506,705.3385)"
           id="g3160">
          <path
             d="m 0,0 c 0.495,-0.158 1.232,-0.312 1.999,-0.312 0.439,0 0.864,0.052 0.864,0.366 0,0.766 -3.027,0.225 -3.027,1.862 0,1.045 1.396,1.471 2.622,1.471 0.736,0 1.479,-0.059 2.171,-0.261 L 4.458,2.037 c -0.446,0.202 -1.12,0.305 -1.656,0.305 -0.46,0 -0.981,-0.061 -0.981,-0.311 0,-0.705 3.174,-0.15 3.174,-1.875 0,-1.21 -1.482,-1.514 -2.877,-1.514 -0.96,0 -1.61,0.07 -2.234,0.218 L 0,0 z"
             id="path3162"
             style="fill:#000000;fill-opacity:1;fill-rule:nonzero;stroke:none" />
        </g>
      </g>
    </g>
    <g
       transform="matrix(1.25,0,0,-1.25,189.12444,1455.4756)"
       id="g3164">
      <g
         clip-path="url(#clipPath3168)"
         id="g3166">
        <g
           transform="translate(102.9005,704.16701)"
           id="g3172">
          <path
             d="m 0,0 c -0.629,-0.113 -1.325,-0.245 -2.45,-0.245 -2.201,0 -4.744,0.821 -4.744,3.118 0,2.116 2.011,3.17 4.732,3.17 0.841,0 1.656,-0.139 2.45,-0.314 L -0.191,4.415 C -0.899,4.7 -1.586,4.84 -2.342,4.84 c -1.562,0 -2.581,-0.835 -2.581,-1.967 0,-1.192 1.151,-1.915 2.757,-1.915 0.722,0 1.456,0.14 2.058,0.313 L 0,0 z"
             id="path3174"
             style="fill:#000000;fill-opacity:1;fill-rule:nonzero;stroke:none" />
        </g>
      </g>
    </g>
    <g
       transform="matrix(1.25,0,0,-1.25,189.12442,1455.4756)"
       id="g3176">
      <g
         clip-path="url(#clipPath3180)"
         id="g3178">
        <g
           transform="translate(107.6311,704.0269)"
           id="g3184">
          <path
             d="m 0,0 c -0.011,0.242 -0.045,0.477 -0.045,0.716 l -0.024,0 c -0.489,-0.567 -1.079,-0.821 -1.951,-0.821 -1.222,0 -2.309,0.445 -2.309,1.429 0,1.383 2.049,1.552 3.181,1.552 0.346,0 0.721,-0.028 0.993,-0.061 -0.009,0.616 -0.637,0.784 -1.407,0.784 -0.686,0 -1.37,-0.098 -1.963,-0.341 l -0.036,1.061 c 0.756,0.228 1.549,0.324 2.461,0.324 1.572,0 2.935,-0.498 2.935,-1.883 l 0,-1.689 C 1.835,0.716 1.859,0.358 1.952,0 L 0,0 z m -1.466,0.942 c 0.802,0 1.311,0.539 1.311,1.07 -0.272,0.011 -0.577,0.025 -0.897,0.025 -0.723,0 -1.288,-0.165 -1.288,-0.598 0,-0.314 0.377,-0.497 0.874,-0.497"
             id="path3186"
             style="fill:#000000;fill-opacity:1;fill-rule:nonzero;stroke:none" />
        </g>
      </g>
    </g>
    <g
       transform="matrix(1.25,0,0,-1.25,189.12444,1455.4756)"
       id="g3188">
      <g
         clip-path="url(#clipPath3192)"
         id="g3190">
        <g
           transform="translate(110.16,708.5638)"
           id="g3196">
          <path
             d="m 0,0 1.942,0 0,-0.837 0.024,0 c 0.426,0.655 1.278,0.944 2.246,0.944 1.679,0 2.358,-0.874 2.358,-1.812 l 0,-2.832 -2.131,0 0,2.195 c 0,0.853 -0.401,1.142 -0.985,1.142 -0.872,0 -1.321,-0.444 -1.321,-1.421 l 0,-1.916 L 0,-4.537 0,0 z"
             id="path3198"
             style="fill:#000000;fill-opacity:1;fill-rule:nonzero;stroke:none" />
        </g>
      </g>
    </g>
    <g
       transform="matrix(1.25,0,0,-1.25,189.12444,1455.4756)"
       id="g3200">
      <g
         clip-path="url(#clipPath3204)"
         id="g3202">
        <g
           transform="translate(121.4238,704.0269)"
           id="g3208">
          <path
             d="m 0,0 c -0.014,0.242 -0.046,0.477 -0.046,0.716 l -0.024,0 c -0.484,-0.567 -1.076,-0.821 -1.956,-0.821 -1.215,0 -2.302,0.445 -2.302,1.429 0,1.383 2.047,1.552 3.182,1.552 0.343,0 0.719,-0.028 0.993,-0.061 -0.011,0.616 -0.641,0.784 -1.408,0.784 -0.685,0 -1.373,-0.098 -1.963,-0.341 l -0.037,1.061 c 0.76,0.228 1.554,0.324 2.461,0.324 1.575,0 2.935,-0.498 2.935,-1.883 l 0,-1.689 C 1.835,0.716 1.859,0.358 1.952,0 L 0,0 z m -1.465,0.942 c 0.8,0 1.312,0.539 1.312,1.07 -0.274,0.011 -0.582,0.025 -0.9,0.025 -0.721,0 -1.287,-0.165 -1.287,-0.598 0,-0.314 0.379,-0.497 0.875,-0.497"
             id="path3210"
             style="fill:#000000;fill-opacity:1;fill-rule:nonzero;stroke:none" />
        </g>
      </g>
    </g>
    <g
       transform="matrix(1.25,0,0,-1.25,189.12444,1455.4756)"
       id="g3212">
      <g
         clip-path="url(#clipPath3216)"
         id="g3214">
        <g
           transform="translate(130.5771,704.0269)"
           id="g3220">
          <path
             d="m 0,0 -1.959,0 0,0.813 -0.024,0 c -0.275,-0.507 -1.139,-0.918 -2.119,-0.918 -1.834,0 -2.815,1.115 -2.815,2.459 0,1.113 0.934,2.289 2.636,2.289 0.853,0 1.576,-0.168 2.12,-0.689 l 0.025,0 0,3.548 L 0,7.502 0,0 z m -3.428,1.098 c 0.709,0 1.303,0.496 1.303,1.157 0,0.689 -0.521,1.185 -1.303,1.185 -0.828,0 -1.289,-0.523 -1.289,-1.124 0,-0.722 0.486,-1.218 1.289,-1.218"
             id="path3222"
             style="fill:#000000;fill-opacity:1;fill-rule:nonzero;stroke:none" />
        </g>
      </g>
    </g>
    <g
       transform="matrix(1.25,0,0,-1.25,189.12444,1455.4756)"
       id="g3224">
      <g
         clip-path="url(#clipPath3228)"
         id="g3226">
        <g
           transform="translate(135.2303,704.0269)"
           id="g3232">
          <path
             d="m 0,0 c -0.012,0.242 -0.048,0.477 -0.048,0.716 l -0.025,0 c -0.486,-0.567 -1.075,-0.821 -1.951,-0.821 -1.217,0 -2.304,0.445 -2.304,1.429 0,1.383 2.042,1.552 3.18,1.552 0.344,0 0.722,-0.028 0.995,-0.061 -0.01,0.616 -0.639,0.784 -1.405,0.784 -0.693,0 -1.376,-0.098 -1.967,-0.341 l -0.04,1.061 c 0.761,0.228 1.553,0.324 2.466,0.324 1.573,0 2.934,-0.498 2.934,-1.883 l 0,-1.689 C 1.835,0.716 1.858,0.358 1.951,0 L 0,0 z m -1.467,0.942 c 0.803,0 1.314,0.539 1.314,1.07 -0.273,0.011 -0.579,0.025 -0.901,0.025 -0.72,0 -1.289,-0.165 -1.289,-0.598 0,-0.314 0.375,-0.497 0.876,-0.497"
             id="path3234"
             style="fill:#000000;fill-opacity:1;fill-rule:nonzero;stroke:none" />
        </g>
      </g>
    </g>
    <g
       transform="matrix(1.25,0,0,-1.25,261.45844,543.98588)"
       id="g3236">
      <path
         d="m 0,0 8.814,0 -13.994,-16.273 -8.815,0 L 0,0 z"
         id="path3238"
         style="fill:#000000;fill-opacity:1;fill-rule:nonzero;stroke:none" />
    </g>
    <g
       transform="matrix(1.25,0,0,-1.25,261.45844,543.98588)"
       id="g3240">
      <path
         d="m 0,0 8.814,0 -13.994,-16.273 -8.815,0 L 0,0 z"
         id="path3242"
         style="fill:none;stroke:#000000;stroke-width:0.412;stroke-linecap:butt;stroke-linejoin:miter;stroke-miterlimit:3.86400008;stroke-opacity:1;stroke-dasharray:none" />
    </g>
    <g
       transform="matrix(1.25,0,0,-1.25,244.0327,544.00862)"
       id="g3244">
      <path
         d="m 0,0 8.814,0 14.32,-16.23 -8.814,0 L 0,0 z"
         id="path3246"
         style="fill:#000000;fill-opacity:1;fill-rule:nonzero;stroke:none" />
    </g>
    <g
       transform="matrix(1.25,0,0,-1.25,244.0327,544.00862)"
       id="g3248">
      <path
         d="m 0,0 8.814,0 14.32,-16.23 -8.814,0 L 0,0 z"
         id="path3250"
         style="fill:none;stroke:#000000;stroke-width:0.47499999;stroke-linecap:butt;stroke-linejoin:miter;stroke-miterlimit:3.86400008;stroke-opacity:1;stroke-dasharray:none" />
    </g>
    <g
       transform="matrix(1.25,0,0,-1.25,189.12444,1455.4756)"
       id="g3252">
      <g
         clip-path="url(#clipPath3256)"
         id="g3254">
        <g
           transform="translate(45.216599,732.55299)"
           id="g3260">
          <path
             d="m 0,0 c 0,0 1.488,-2.498 1.567,-2.63 0.08,-0.133 0.133,-0.293 0.505,-0.107 0.371,0.186 1.222,0.638 1.222,0.638 0,0 -0.771,-4.73 -0.824,-5.129 -0.053,-0.398 0.478,-1.142 1.089,-0.557 0.611,0.584 2.204,2.391 2.204,2.391 0,0 0.532,-0.957 0.611,-1.089 0.08,-0.134 0.133,-0.213 0.452,-0.16 0.319,0.053 2.072,0.319 2.072,0.319 0,0 -0.478,-2.365 -0.505,-2.551 -0.027,-0.186 -0.053,-0.319 0.106,-0.478 0.159,-0.159 0.558,-0.665 0.558,-0.665 l -4.701,-3.985 0.239,-1.488 -4.01,0.664 0,-1.036 -1.408,0 0,1.036 -4.037,-0.664 0.292,1.435 -4.621,4.065 c 0,0 0.371,0.585 0.584,0.771 0.212,0.186 0.106,0.239 0.053,0.531 -0.053,0.292 -0.425,2.365 -0.425,2.365 0,0 1.912,-0.319 2.125,-0.345 0.212,-0.027 0.319,0 0.425,0.186 0.106,0.186 0.557,1.063 0.557,1.063 0,0 1.992,-2.259 2.231,-2.419 0.24,-0.159 1.063,-0.238 1.036,0.426 -0.026,0.663 -0.743,5.314 -0.743,5.314 0,0 1.168,-0.585 1.354,-0.691 0.186,-0.107 0.239,-0.053 0.345,0.133 C -1.54,-2.471 0,0 0,0"
             id="path3262"
             style="fill:#000000;fill-opacity:1;fill-rule:nonzero;stroke:none" />
        </g>
      </g>
    </g>
    <g
       transform="matrix(1.25,0,0,-1.25,189.12444,1455.4756)"
       id="g3264">
      <g
         clip-path="url(#clipPath3268)"
         id="g3266">
        <g
           transform="translate(45.216599,732.55299)"
           id="g3272">
          <path
             d="m 0,0 c 0,0 1.488,-2.498 1.567,-2.63 0.08,-0.133 0.133,-0.293 0.505,-0.107 0.371,0.186 1.222,0.638 1.222,0.638 0,0 -0.771,-4.73 -0.824,-5.129 -0.053,-0.398 0.478,-1.142 1.089,-0.557 0.611,0.584 2.204,2.391 2.204,2.391 0,0 0.532,-0.957 0.611,-1.089 0.08,-0.134 0.133,-0.213 0.452,-0.16 0.319,0.053 2.072,0.319 2.072,0.319 0,0 -0.478,-2.365 -0.505,-2.551 -0.027,-0.186 -0.053,-0.319 0.106,-0.478 0.159,-0.159 0.558,-0.665 0.558,-0.665 l -4.701,-3.985 0.239,-1.488 -4.01,0.664 0,-1.036 -1.408,0 0,1.036 -4.037,-0.664 0.292,1.435 -4.621,4.065 c 0,0 0.371,0.585 0.584,0.771 0.212,0.186 0.106,0.239 0.053,0.531 -0.053,0.292 -0.425,2.365 -0.425,2.365 0,0 1.912,-0.319 2.125,-0.345 0.212,-0.027 0.319,0 0.425,0.186 0.106,0.186 0.557,1.063 0.557,1.063 0,0 1.992,-2.259 2.231,-2.419 0.24,-0.159 1.063,-0.238 1.036,0.426 -0.026,0.663 -0.743,5.314 -0.743,5.314 0,0 1.168,-0.585 1.354,-0.691 0.186,-0.107 0.239,-0.053 0.345,0.133 C -1.54,-2.471 0,0 0,0"
             id="path3274"
             style="fill:#ffffff;fill-opacity:1;fill-rule:nonzero;stroke:none" />
        </g>
      </g>
    </g>
    <g
       transform="matrix(1.25,0,0,-1.25,189.12446,1455.4756)"
       id="g3276">
      <g
         clip-path="url(#clipPath3280)"
         id="g3278">
        <g
           transform="translate(45.011093,732.6812)"
           id="g3284">
          <path
             d="m 0,0 -1.651,-2.665 c 0,0 -0.013,-0.019 -0.025,-0.038 -0.053,0.027 -1.778,0.908 -1.778,0.908 l 0.074,-0.469 c 0.007,-0.046 0.715,-4.644 0.741,-5.287 0.006,-0.153 -0.052,-0.206 -0.103,-0.234 -0.166,-0.093 -0.464,-0.042 -0.557,0.019 -0.156,0.113 -1.242,1.309 -2.184,2.378 l -0.232,0.263 -0.717,-1.367 c -0.047,-0.082 -0.047,-0.082 -0.185,-0.066 l -2.453,0.4 0.06,-0.337 0.425,-2.365 0.05,-0.208 c 0,0 0.01,-0.036 0.015,-0.058 -0.014,-0.014 -0.04,-0.041 -0.04,-0.041 -0.231,-0.202 -0.588,-0.76 -0.629,-0.822 L -9.3,-10.164 c 0,0 4.471,-3.933 4.672,-4.11 -0.046,-0.225 -0.334,-1.642 -0.334,-1.642 0,0 3.615,0.595 4.102,0.675 l 0,-0.993 1.892,0 0,0.993 c 0.487,-0.08 4.061,-0.673 4.061,-0.673 0,0 -0.235,1.463 -0.271,1.686 0.199,0.169 4.781,4.053 4.781,4.053 L 8.876,-9.311 C 8.835,-9.27 8.82,-9.247 8.82,-9.196 c 0,0.032 0.006,0.074 0.015,0.137 0.022,0.153 0.314,1.611 0.506,2.559 l 0.068,0.34 -2.417,-0.372 c -0.125,-0.021 -0.161,-0.012 -0.168,-0.01 -0.006,0.008 -0.036,0.055 -0.036,0.055 0,0 -0.774,1.38 -0.774,1.38 L 5.787,-5.362 C 5.772,-5.38 4.194,-7.168 3.597,-7.739 3.374,-7.952 3.235,-7.881 3.189,-7.858 c -0.183,0.093 -0.29,0.345 -0.273,0.47 0.052,0.391 0.814,5.074 0.822,5.122 l 0.078,0.477 -1.647,-0.86 C 2.081,-2.692 2.043,-2.701 2.023,-2.704 2.012,-2.688 2,-2.668 2,-2.668 L 0.21,0.338 0,0 z m -1.539,-3.202 c 0.164,0.045 0.247,0.191 0.308,0.297 0,0 0.994,1.603 1.432,2.311 0.309,-0.519 1.364,-2.289 1.364,-2.289 0.135,-0.234 0.335,-0.442 0.82,-0.199 0,0 0.443,0.232 0.797,0.416 C 2.985,-3.88 2.479,-6.998 2.436,-7.324 2.432,-7.353 2.43,-7.383 2.43,-7.413 c 0,-0.335 0.231,-0.72 0.539,-0.876 0.313,-0.159 0.664,-0.086 0.963,0.2 0.482,0.461 1.534,1.635 1.992,2.151 0.178,-0.316 0.448,-0.798 0.448,-0.798 0.135,-0.225 0.292,-0.342 0.699,-0.274 0,0 1.139,0.176 1.726,0.266 C 8.662,-7.415 8.38,-8.818 8.359,-8.969 8.348,-9.041 8.337,-9.117 8.337,-9.194 c 0,-0.147 0.04,-0.302 0.196,-0.459 0,0 0.233,-0.278 0.389,-0.464 -0.339,-0.287 -4.621,-3.918 -4.621,-3.918 0,0 0.143,-0.89 0.207,-1.291 -0.559,0.093 -3.96,0.656 -3.96,0.656 l 0,-1.08 -0.924,0 0,1.08 c 0,0 -3.392,-0.559 -3.972,-0.654 0.081,0.398 0.251,1.228 0.251,1.228 0,0 -4.274,3.76 -4.569,4.02 0.141,0.207 0.322,0.454 0.426,0.545 0.16,0.14 0.208,0.264 0.208,0.385 0,0.07 -0.016,0.141 -0.037,0.213 l -0.039,0.159 c 0,0 -0.248,1.378 -0.365,2.028 0.479,-0.078 1.796,-0.292 1.796,-0.292 0.238,-0.029 0.483,-0.013 0.666,0.307 0,0 0.233,0.445 0.398,0.759 0.621,-0.701 1.831,-2.054 2.045,-2.197 0.212,-0.14 0.712,-0.235 1.062,-0.039 0.228,0.128 0.352,0.353 0.352,0.636 0,0.013 -10e-4,0.026 -10e-4,0.04 -0.022,0.551 -0.492,3.674 -0.675,4.874 0.397,-0.201 0.924,-0.47 0.924,-0.47 0.095,-0.055 0.224,-0.113 0.367,-0.074"
             id="path3286"
             style="fill:#000000;fill-opacity:1;fill-rule:nonzero;stroke:none" />
        </g>
      </g>
    </g>
    <g
       transform="matrix(1.25,0,0,-1.25,274.64581,543.84762)"
       id="g3288">
      <path
         d="m 0,0 -6.781,-8.028 7.351,-8.467 68.232,0 L 68.802,0 0,0 z"
         id="path3290"
         style="fill:#860038;fill-opacity:1;fill-rule:nonzero;stroke:none" />
    </g>
    <path
       d="m 243.27819,567.01562 7.2825,0 0,-0.96 -7.2825,0 0,0.96 z"
       id="path3292"
       style="fill:#000000;fill-opacity:1;fill-rule:nonzero;stroke:none" />
    <path
       d="m 255.10319,567.01312 93.65,0 0,-0.96 -93.65,0 0,0.96 z"
       id="path3294"
       style="fill:#000000;fill-opacity:1;fill-rule:nonzero;stroke:none" />
    <path
       d="m 353.26694,567.01312 7.35,0 0,-0.96 -7.35,0 0,0.96 z"
       id="path3296"
       style="fill:#000000;fill-opacity:1;fill-rule:nonzero;stroke:none" />
  </g>
</svg>
