<?xml version="1.0" encoding="UTF-8" standalone="no"?>
<svg
   xmlns:dc="http://purl.org/dc/elements/1.1/"
   xmlns:cc="http://creativecommons.org/ns#"
   xmlns:rdf="http://www.w3.org/1999/02/22-rdf-syntax-ns#"
   xmlns:svg="http://www.w3.org/2000/svg"
   xmlns="http://www.w3.org/2000/svg"
   viewBox="0 0 2113.1201 418.81332"
   height="140.78233117"
   width="710.316409516"
   xml:space="preserve"
   version="1.1"
   id="svg2"><metadata
     id="metadata8"><rdf:RDF><cc:Work
         rdf:about=""><dc:format>image/svg+xml</dc:format><dc:type
           rdf:resource="http://purl.org/dc/dcmitype/StillImage" /></cc:Work></rdf:RDF></metadata><defs
     id="defs6" /><g
     transform="matrix(1.3333333,0,0,-1.3333333,0,418.81333)"
     id="g10"><g
       transform="scale(0.108044)"
       id="g12"><path
         id="path14"
         style="fill:#3d9f3b;fill-opacity:1;fill-rule:nonzero;stroke:none"
         d="M 1192.61,1462.77 C 1179.09,1187.06 978.957,982.316 719.344,982.316 c -256.903,0 -467.828,218.384 -467.828,485.914 0,267.52 210.925,485.91 470.515,485.91 262.332,0 473.279,-207.48 473.279,-466.8 0,-8.18 -2.7,-16.39 -2.7,-24.57 l 0,0 z m 18.91,521.38 C 1089.84,2120.63 932.992,2186.18 727.461,2186.18 321.824,2186.18 0,1869.5 0,1473.7 0,1080.58 329.938,750.27 719.344,750.27 c 189.304,0 340.766,70.992 473.266,221.125 l 0,-92.973 c 0,-272.961 -192,-458.602 -475.95,-458.602 -164.972,0 -289.383,62.801 -386.722,196.571 l -283.9692,0 C 97.3516,501.695 124.418,463.48 208.203,384.336 351.578,247.852 505.699,185.055 703.129,185.055 c 438.101,0 750.941,283.902 750.941,690.656 l 0,1298.809 -242.55,0 0,-190.37" /><path
         id="path16"
         style="fill:#3d9f3b;fill-opacity:1;fill-rule:nonzero;stroke:none"
         d="m 5975.46,2186.18 c -174.7,0 -313.94,-60.07 -403.99,-180.18 l 0,170.45 -248.38,0 0,-1390.692 270.21,0 0,742.522 c 0,264.79 131.01,425.86 352.13,425.86 122.85,0 229.32,-51.86 283.93,-139.21 40.96,-62.81 57.3,-152.9 57.3,-286.65 l 0,-742.522 256.64,0 0,838.082 c 0,335.76 -229.32,562.34 -567.84,562.34 l 0,0" /><path
         id="path18"
         style="fill:#3d9f3b;fill-opacity:1;fill-rule:nonzero;stroke:none"
         d="m 2252.91,2205.02 c -13.07,-0.45 -22.21,-0.82 -28.31,-1.11 l 0,0.08 c -150.35,-5.92 -266.93,-68.73 -358.42,-189.79 l 0,160.32 -238.48,0 0,-1388.762 261.11,0 0,745.252 c 0,285.26 101.4,373.83 329.61,394.35 19.2,1.12 34.49,1.1 34.49,1.1 0,0 0,276.82 0,278.56 l 0,0" /><path
         id="path20"
         style="fill:#3d9f3b;fill-opacity:1;fill-rule:nonzero;stroke:none"
         d="m 2156.15,400.043 c 50.79,0 78.18,24.898 78.18,70.703 l 0,1.988 c 0,50.286 -29.88,69.196 -78.18,69.196 l -60.74,0 0,-141.887 60.74,0 0,0 z m -104.04,176.723 101.06,0 c 68.21,0 124.47,-29.84 124.47,-104.032 l 0,-1.988 c 0,-75.676 -56.77,-105.051 -124.47,-105.051 l -57.76,0 0,-144.886 -43.3,0 0,355.957" /><path
         id="path22"
         style="fill:#3d9f3b;fill-opacity:1;fill-rule:nonzero;stroke:none"
         d="m 2503.66,357.727 -61.74,183.195 -61.72,-183.195 123.46,0 0,0 z m -88.11,219.039 56.75,0 120.49,-355.957 -42.83,0 -34.85,102.57 -146.86,0 -34.35,-102.57 -40.82,0 122.47,355.957 0,0" /><path
         id="path24"
         style="fill:#3d9f3b;fill-opacity:1;fill-rule:nonzero;stroke:none"
         d="m 2769.01,410.012 c 50.78,0 78.16,21.886 78.16,65.703 l 0,1.992 c 0,48.285 -29.87,64.223 -78.16,64.223 l -66.71,0 0,-131.918 66.71,0 0,0 z m -110.02,166.754 107.04,0 c 68.2,0 124.45,-27.86 124.45,-99.059 l 0,-1.992 c 0,-58.754 -39.33,-87.621 -88.11,-97.09 l 109.03,-157.816 -48.3,0 -106.03,154.836 -54.77,0 0,-154.836 -43.31,0 0,355.957" /><path
         id="path26"
         style="fill:#3d9f3b;fill-opacity:1;fill-rule:nonzero;stroke:none"
         d="m 3040.34,541.43 -103.56,0 0,35.336 250.4,0 0,-35.336 -103.55,0 0,-320.621 -43.29,0 0,320.621" /><path
         id="path28"
         style="fill:#3d9f3b;fill-opacity:1;fill-rule:nonzero;stroke:none"
         d="m 3341.03,376.145 -118.99,200.621 48.8,0 93.09,-165.274 89.62,165.274 43.31,0 -112.51,-201.121 0,-154.836 -43.32,0 0,155.336" /><path
         id="path30"
         style="fill:#3d9f3b;fill-opacity:1;fill-rule:nonzero;stroke:none"
         d="m 3978.76,398.062 0,3.969 c 0,79.653 -46.78,144.367 -128.93,144.367 -82.65,0 -130.45,-60.722 -130.45,-145.355 l 0,-3.981 c 0,-86.14 57.26,-144.867 131.44,-144.867 79.16,0 127.94,59.727 127.94,145.867 l 0,0 z m -304.18,-1.507 0,3.996 c 0,101.051 70.69,180.695 175.25,180.695 104.54,0 173.74,-79.644 173.74,-179.703 l 0,-3.992 c 0,-100.559 -69.2,-181.223 -172.75,-181.223 -105.05,0 -176.24,80.664 -176.24,180.227 l 0,0" /><path
         id="path32"
         style="fill:#3d9f3b;fill-opacity:1;fill-rule:nonzero;stroke:none"
         d="m 4094.17,576.766 208.09,0 0,-35.336 -164.78,0 0,-125.95 128.43,0 0,-35.355 -128.43,0 0,-159.316 -43.31,0 0,355.957" /><path
         id="path34"
         style="fill:#3d9f3b;fill-opacity:1;fill-rule:nonzero;stroke:none"
         d="m 4487.46,396.555 0,3.996 c 0,105.531 70.69,181.715 167.28,181.715 74.18,0 136.91,-39.336 144.37,-116.508 l -42.81,0 c -8.98,54.262 -40.33,82.14 -101.07,82.14 -73.68,0 -122.96,-57.253 -122.96,-146.855 l 0,-3.981 c 0,-90.621 45.81,-145.378 122.47,-145.378 58.24,0 98.55,29.378 107.53,87.132 l 40.33,0 c -12.44,-82.16 -69.21,-122.488 -148.86,-122.488 -103.04,0 -166.28,70.695 -166.28,180.227 l 0,0" /><path
         id="path36"
         style="fill:#3d9f3b;fill-opacity:1;fill-rule:nonzero;stroke:none"
         d="m 5049.54,357.727 -61.75,183.195 -61.74,-183.195 123.49,0 0,0 z m -88.13,219.039 56.75,0 120.48,-355.957 -42.81,0 -34.85,102.57 -146.87,0 -34.35,-102.57 -40.83,0 122.48,355.957 0,0" /><path
         id="path38"
         style="fill:#3d9f3b;fill-opacity:1;fill-rule:nonzero;stroke:none"
         d="m 5202.86,576.766 56.26,0 173.26,-294.204 0,294.204 41.31,0 0,-355.957 -49.78,0 -179.72,305.183 0,-305.183 -41.33,0 0,355.957" /><path
         id="path40"
         style="fill:#3d9f3b;fill-opacity:1;fill-rule:nonzero;stroke:none"
         d="m 5750.51,357.727 -61.74,183.195 -61.74,-183.195 123.48,0 0,0 z m -88.13,219.039 56.75,0 120.48,-355.957 -42.81,0 -34.85,102.57 -146.86,0 -34.35,-102.57 -40.83,0 122.47,355.957 0,0" /><path
         id="path42"
         style="fill:#3d9f3b;fill-opacity:1;fill-rule:nonzero;stroke:none"
         d="m 5997.92,256.164 c 91.61,0 137.42,54.758 137.42,141.898 l 0,3.969 c 0,82.145 -39.84,139.899 -137.91,139.899 l -48.29,0 0,-285.766 48.78,0 0,0 z m -92.1,320.602 94.11,0 c 122.47,0 180.21,-75.653 180.21,-174.735 l 0,-4.48 c 0,-98.578 -56.75,-176.742 -181.22,-176.742 l -93.1,0 0,355.957" /><path
         id="path44"
         style="fill:#3d9f3b;fill-opacity:1;fill-rule:nonzero;stroke:none"
         d="m 6420.6,357.727 -61.73,183.195 -61.74,-183.195 123.47,0 0,0 z m -88.11,219.039 56.73,0 120.49,-355.957 -42.81,0 -34.85,102.57 -146.86,0 -34.35,-102.57 -40.82,0 122.47,355.957 0,0" /><path
         id="path46"
         style="fill:#3d9f3b;fill-opacity:1;fill-rule:nonzero;stroke:none"
         d="m 4508.75,1989.82 c 233.34,0 416.24,-168.98 442.89,-376.09 l -906.8,0 c 0.07,1.34 0.2,3.16 0.39,5.86 32.41,204.43 232.39,370.23 463.52,370.23 l 0,0 z m 707.53,-481.81 c -0.27,413.58 -321.71,712.63 -713.93,712.63 -403.58,0 -725.26,-318.8 -725.26,-743.37 0,-6.98 0.08,-13.82 0.23,-20.54 -0.65,-348.84 265.45,-694.453 714.05,-694.453 304.92,0 547.58,168.875 662.17,424.253 l -288.27,0 c -73.91,-118.26 -206.95,-189.721 -380.32,-189.721 -234.98,0 -434.22,190.261 -437.5,377.091 l 1160.37,0 c 5.67,58.68 8.48,103.37 8.46,134.11 l 0,0" /><path
         id="path48"
         style="fill:#3d9f3b;fill-opacity:1;fill-rule:nonzero;stroke:none"
         d="m 2967.16,1989.82 c 233.35,0 416.25,-168.98 442.9,-376.09 l -906.8,0 c 0.07,1.34 0.21,3.16 0.4,5.86 32.4,204.43 232.39,370.23 463.5,370.23 l 0,0 z m 707.55,-481.81 c -0.28,413.58 -321.72,712.63 -713.94,712.63 -403.58,0 -725.26,-318.8 -725.26,-743.37 0,-6.98 0.08,-13.82 0.24,-20.54 -0.66,-348.84 265.45,-694.453 714.04,-694.453 304.93,0 547.59,168.875 662.17,424.253 l -288.28,0 c -73.89,-118.26 -206.94,-189.721 -380.31,-189.721 -234.98,0 -434.22,190.261 -437.5,377.091 l 1160.37,0 c 5.67,58.68 8.49,103.37 8.47,134.11 l 0,0" /><path
         id="path50"
         style="fill:#3d9f3b;fill-opacity:1;fill-rule:nonzero;stroke:none"
         d="m 10519.9,2566.05 c 50.8,0 78.2,24.9 78.2,70.7 l 0,1.99 c 0,50.28 -29.9,69.2 -78.2,69.2 l -60.7,0 0,-141.89 60.7,0 0,0 z m -104,176.74 101.1,0 c 68.2,0 124.4,-29.88 124.4,-104.05 l 0,-1.99 c 0,-75.69 -56.8,-105.04 -124.4,-105.04 l -57.8,0 0,-144.87 -43.3,0 0,355.95" /><path
         id="path52"
         style="fill:#3d9f3b;fill-opacity:1;fill-rule:nonzero;stroke:none"
         d="m 10876.4,2523.73 -61.7,183.22 -61.7,-183.22 123.4,0 0,0 z m -88.1,219.06 56.8,0 120.4,-355.95 -42.8,0 -34.9,102.55 -146.8,0 -34.4,-102.55 -40.8,0 122.5,355.95 0,0" /><path
         id="path54"
         style="fill:#3d9f3b;fill-opacity:1;fill-rule:nonzero;stroke:none"
         d="m 11149.2,2576.02 c 50.8,0 78.2,21.91 78.2,65.71 l 0,2 c 0,48.29 -29.9,64.21 -78.2,64.21 l -66.7,0 0,-131.92 66.7,0 0,0 z m -110,166.77 107,0 c 68.3,0 124.5,-27.89 124.5,-99.06 l 0,-2 c 0,-58.74 -39.3,-87.62 -88.1,-97.08 l 109,-157.81 -48.3,0 -106,154.83 -54.8,0 0,-154.83 -43.3,0 0,355.95" /><path
         id="path56"
         style="fill:#3d9f3b;fill-opacity:1;fill-rule:nonzero;stroke:none"
         d="m 11428.5,2707.44 -103.5,0 0,35.35 250.4,0 0,-35.35 -103.6,0 0,-320.6 -43.3,0 0,320.6" /><path
         id="path58"
         style="fill:#3d9f3b;fill-opacity:1;fill-rule:nonzero;stroke:none"
         d="m 11650.6,2742.79 43.3,0 0,-355.95 -43.3,0 0,355.95" /><path
         id="path60"
         style="fill:#3d9f3b;fill-opacity:1;fill-rule:nonzero;stroke:none"
         d="m 11906.3,256.164 c 91.6,0 137.4,54.758 137.4,141.898 l 0,3.969 c 0,82.145 -39.8,139.899 -137.9,139.899 l -48.3,0 0,-285.766 48.8,0 0,0 z m -92.1,320.602 94.1,0 c 122.5,0 180.2,-75.653 180.2,-174.735 l 0,-4.48 c 0,-98.578 -56.7,-176.742 -181.2,-176.742 l -93.1,0 0,355.957" /><path
         id="path62"
         style="fill:#3d9f3b;fill-opacity:1;fill-rule:nonzero;stroke:none"
         d="m 12155.6,350.746 0,226.02 43.4,0 0,-221.032 c 0,-74.672 26.3,-103.539 85.6,-103.539 56.7,0 90.6,22.899 90.6,110.012 l 0,214.559 43.3,0 0,-220.539 c 0,-86.606 -43.3,-139.899 -134.9,-139.899 -81.7,0 -128,47.797 -128,134.418 l 0,0" /><path
         id="path64"
         style="fill:#3d9f3b;fill-opacity:1;fill-rule:nonzero;stroke:none"
         d="m 12633.6,396.555 0,3.996 c 0,105.531 70.6,181.715 167.2,181.715 74.2,0 136.9,-39.336 144.4,-116.508 l -42.8,0 c -9,54.262 -40.3,82.14 -101.1,82.14 -73.7,0 -122.9,-57.253 -122.9,-146.855 l 0,-3.981 c 0,-90.621 45.8,-145.378 122.4,-145.378 58.3,0 98.6,29.378 107.6,87.132 l 40.3,0 c -12.4,-82.16 -69.2,-122.488 -148.9,-122.488 -103,0 -166.2,70.695 -166.2,180.227 l 0,0" /><path
         id="path66"
         style="fill:#3d9f3b;fill-opacity:1;fill-rule:nonzero;stroke:none"
         d="m 13195.6,357.727 -61.7,183.195 -61.8,-183.195 123.5,0 0,0 z m -88.1,219.039 56.8,0 120.4,-355.957 -42.7,0 -34.9,102.57 -146.9,0 -34.4,-102.57 -40.8,0 122.5,355.957 0,0" /><path
         id="path68"
         style="fill:#3d9f3b;fill-opacity:1;fill-rule:nonzero;stroke:none"
         d="m 13349,576.766 56.2,0 173.3,-294.204 0,294.204 41.3,0 0,-355.957 -49.8,0 -179.8,305.183 0,-305.183 -41.2,0 0,355.957" /><path
         id="path70"
         style="fill:#3d9f3b;fill-opacity:1;fill-rule:nonzero;stroke:none"
         d="m 13896.6,357.727 -61.7,183.195 -61.8,-183.195 123.5,0 0,0 z m -88.1,219.039 56.7,0 120.5,-355.957 -42.8,0 -34.8,102.57 -146.9,0 -34.3,-102.57 -40.9,0 122.5,355.957 0,0" /><path
         id="path72"
         style="fill:#3d9f3b;fill-opacity:1;fill-rule:nonzero;stroke:none"
         d="m 14144,256.164 c 91.6,0 137.5,54.758 137.5,141.898 l 0,3.969 c 0,82.145 -39.9,139.899 -138,139.899 l -48.3,0 0,-285.766 48.8,0 0,0 z m -92.1,320.602 94.1,0 c 122.5,0 180.2,-75.653 180.2,-174.735 l 0,-4.48 c 0,-98.578 -56.7,-176.742 -181.2,-176.742 l -93.1,0 0,355.957" /><path
         id="path74"
         style="fill:#3d9f3b;fill-opacity:1;fill-rule:nonzero;stroke:none"
         d="m 14566.7,357.727 -61.7,183.195 -61.8,-183.195 123.5,0 0,0 z m -88.1,219.039 56.7,0 120.5,-355.957 -42.8,0 -34.8,102.57 -146.9,0 -34.3,-102.57 -40.9,0 122.5,355.957 0,0" /><path
         id="path76"
         style="fill:#3d9f3b;fill-opacity:1;fill-rule:nonzero;stroke:none"
         d="m 13834.4,1934.65 c 0,0 0,278.19 0,279.95 -13.3,-0.46 -22.6,-0.83 -28.8,-1.12 l 0,0.07 c -153,-6 -271.5,-52.16 -364.6,-175.3 l 0.2,155.02 -256.2,0 0,-1404.727 279,0 0,749.587 c 0,312.84 103.1,374.52 335.3,395.39 19.6,1.13 35.1,1.13 35.1,1.13 l 0,0" /><path
         id="path78"
         style="fill:#3d9f3b;fill-opacity:1;fill-rule:nonzero;stroke:none"
         d="m 11691.9,2177.18 -544.2,-1388.426 -183.2,0 -549.9,1388.426 292.1,0 349.4,-979.1 350.6,979.1 285.2,0 0,0" /><path
         id="path80"
         style="fill:#3d9f3b;fill-opacity:1;fill-rule:nonzero;stroke:none"
         d="m 12365.2,1988.65 c 233,0 415.6,-168.68 442.1,-375.41 l -905.2,0 c 0.1,1.36 0.2,3.16 0.5,5.86 32.3,204.05 231.9,369.55 462.6,369.55 l 0,0 z m 706.3,-480.94 c -0.3,412.85 -321.2,711.33 -712.7,711.33 -402.8,0 -723.9,-318.22 -723.9,-742.01 0,-6.98 0,-13.78 0.2,-20.52 -0.6,-348.18 265,-693.17 712.8,-693.17 304.4,0 546.6,168.551 660.9,423.48 l -287.7,0 c -73.7,-118.03 -206.5,-189.379 -379.6,-189.379 -234.5,0 -433.4,189.919 -436.8,376.419 l 1158.4,0 c 5.6,58.55 8.4,103.17 8.4,133.85 l 0,0" /><path
         id="path82"
         style="fill:#3d9f3b;fill-opacity:1;fill-rule:nonzero;stroke:none"
         d="m 14668.5,1954.63 0,249.7 -243.5,0 0,451.21 -261.5,0 0,-451.21 -215.9,0 0,-249.7 215.9,0 c 0,0 0,-569.45 0,-703.67 0,-4.21 0.1,-8.23 0.2,-12.35 l 0,-92.08 c 0,-242.128 102.7,-383.671 315.7,-383.671 l 119.8,-0.277 0,255.338 c -116.8,-4.53 -174.2,-2.71 -174.2,155.24 l 0,781.47 243.5,0 0,0" /><path
         id="path84"
         style="fill:#3d9f3b;fill-opacity:1;fill-rule:nonzero;stroke:none"
         d="m 7629.02,888.27 c -83.8,23.703 -164.31,56.042 -237.82,91.296 -29.04,-101.504 -51.27,-215.882 -66.53,-343.019 54.29,-12.141 171.92,-35.012 313.82,-42.352 -16.8,106.801 -20.01,205.289 -9.47,294.075 z m 339.76,-275.149 c -20.41,82.199 -26.94,162.086 -19.16,239.598 -86.86,-7.699 -175.19,1.086 -261.23,20.492 -7.76,-84.5 -1.52,-178.453 18.05,-281.137 84.18,-0.969 173.96,4.508 262.34,21.047 z M 7490.23,1775.87 c -40.28,85.65 -69.26,174.98 -90.19,259.64 -135.56,-63.06 -243.04,-133.74 -292.59,-168.47 24.34,-47.05 81.39,-150.76 165.1,-264.5 71.69,72.41 144.28,130.3 217.68,173.33 z m -54.76,338.47 c 130.33,40.01 249.87,59.48 358.23,58.19 6.92,89.25 25.08,176.78 48.81,258.24 -157.72,19.35 -303.37,19.98 -445.72,12.09 -0.18,-8.68 0.33,-21.27 1.3,-36.25 2.82,-57.22 11.37,-166.08 37.38,-292.27 z M 7717.01,540.031 c 24.64,-107.679 63.95,-224.945 116.97,-350.988 69.93,18.051 172.67,48.891 282.8,96.629 -61.15,95.043 -105.93,187.676 -134.14,277.703 -89.75,-17.43 -180.46,-23.742 -265.63,-23.344 z m -244.75,767.809 c -76.52,63.53 -144.39,136.02 -202.33,207.24 -96.13,-114.33 -163.64,-223.74 -193.97,-276.22 41.51,-32.59 145.94,-110.36 282.49,-183.28 31.36,96.13 69.3,180.28 113.81,252.26 z M 8980.05,738.703 c -11.94,-83.551 -38.97,-163.742 -75.05,-238.922 179,-69.019 412.72,-92.176 699.73,-68.41 -5.27,124.246 -17.12,235.008 -34.34,333.578 -226.29,-75.273 -423.55,-83.816 -590.34,-26.246 z m 237.69,262.447 c -110.33,-6.099 -208.44,24.36 -289.71,66.07 41.65,-88.376 62.21,-179.884 57.21,-276.615 245.27,-90.351 566.92,-22.695 957.22,201.844 -56.82,109.061 -113.84,203.441 -170.57,284.611 -183.17,-173.05 -368.56,-265.57 -554.15,-275.91 z M 8731.92,236.434 c 98.47,-58.969 213.62,-113.317 345.13,-162.8442 46.56,111.8832 81.91,214.7192 107.73,309.2852 -113.56,12.871 -214.36,36.965 -303.03,71.656 -43.12,-79.629 -95.5,-153.004 -149.83,-218.097 z M 8433.34,409.789 C 8357.54,350.496 8274.38,302.176 8192.78,263.219 8252.57,177.68 8325.93,89.918 8412.95,0 c 52.49,41.1797 146.69,120.422 241.14,225.742 -87.57,57.293 -161.34,118.61 -220.75,184.047 z m 192.64,207.602 c -0.46,-0.762 -0.86,-1.555 -1.35,-2.278 -41.83,-65.531 -94.25,-122.785 -152.27,-173.105 57.5,-63.098 129.5,-122.293 215.13,-177.727 53.13,63.024 104.49,133.844 146.7,210.352 -81.27,37.402 -150.69,84.984 -208.21,142.758 z m -334.03,15.531 c -4.42,11.215 -9.04,22.48 -12.81,33.91 -0.85,2.582 -1.25,5.164 -2.12,7.766 -0.62,-0.399 -1.28,-0.778 -1.97,-1.137 -75.06,-46.816 -157.89,-78.469 -242.82,-99.203 27.55,-86.41 71.34,-175.641 131.08,-267.547 80.4,37.836 162.5,84.816 236.78,142.285 -46.8,58.301 -82.88,119.617 -108.14,183.926 z m 610.63,447.868 c -94.77,53.57 -163.07,119.95 -195.28,154.75 -12.31,-0.49 -29.44,-0.44 -48.32,1.68 -4.48,-17.44 -10.3,-36.07 -19.31,-57.27 0,0 -24.3,7.77 -52.02,23.44 -3.3,1.86 -6.6,3.84 -9.92,5.88 -0.34,-0.34 -0.69,-0.76 -1.03,-1.14 0,-0.04 -0.08,-0.07 -0.08,-0.09 -11.11,-13.36 -24.56,-27.37 -40.94,-42.12 0,0 -23.66,21.8 -44.08,53.24 -7.56,-3.6 -15.82,-7.05 -24.56,-10.42 -9.92,-3.81 -20.31,-7.59 -31.78,-11.1 0,0 -12.62,30.65 -17.72,68.57 -11.37,-0.16 -23.75,0.43 -37.02,1.59 -7.82,0.69 -15.1,1.1 -23.6,2.28 0,0 1.54,31.38 12.14,66.64 -15.24,7.04 -31.35,15.52 -49.13,26.95 -0.55,0.36 -1.03,0.61 -1.56,0.97 0,0 14.13,26.88 37.9,53.96 -8.84,10.44 -17.81,22.55 -26.96,36.3 -2.62,3.89 -5.18,7.71 -7.78,11.9 0,0 24.98,19.04 58.92,33.64 -4.86,17.34 -9.1,36.41 -11.9,59.29 0,0 39.46,8.42 82.65,4.53 6.12,19.95 15.07,42.05 28.37,67.04 0,0 24.84,-10.37 51.95,-29.41 9.86,72.28 35.62,357.55 -117.91,556.7 -43.27,56.01 -98.02,103.93 -164.17,143.77 -17.26,-43.47 -30.81,-88.23 -39.01,-134.18 -8.11,-45.38 -12.55,-91.82 -12.68,-138.55 158.18,-144.61 212.35,-424.45 214.62,-435.28 -14.31,47.59 -76.12,227.42 -210.91,360.86 10.88,-105.85 46.66,-210.51 118.02,-303.78 -85.35,111.56 -141.98,224.49 -160.69,342.45 -27.37,22.3 -57.21,42.48 -89.74,59.36 -67.54,34.96 -143.49,55.28 -227.04,62.1 -1.7,-70.09 4.72,-140.18 22.63,-207.71 3.9,-14.63 8.73,-29.06 13.4,-43.48 226.82,-33.87 433.79,-267.09 428.98,-261.39 -40.52,36.19 -205.86,172.24 -408.16,204.8 15.28,-37.32 33.7,-73.49 55.34,-108.05 12.28,-19.62 25.65,-38.56 40.1,-56.9 9.25,-11.68 18.54,-23.44 28.73,-34.52 7.01,-0.54 13.73,-1.43 20.61,-2.14 122.5,-13.22 257.85,-70.48 265.84,-73.71 -30.44,9.14 -114.2,31.25 -218.41,36.93 -9.9,0.54 -20,0.8 -30.21,1.01 l 120.94,-84.82 c -49.8,26.02 -95.23,54.38 -136.47,85.11 -92.3,0.24 -195.1,-14.97 -288.72,-62.9 65.31,-53.08 139.61,-96.78 221.37,-123.91 9.22,-3.07 18.52,-6 27.91,-8.66 113.44,40.92 260.29,51.54 269.11,52.27 -32.2,-5.82 -117.03,-24 -211.98,-65.05 35.02,-6.13 71.2,-9.11 108.41,-8.52 -43.43,-2.24 -85.87,-2.67 -126.38,0.6 -82.75,-37.85 -170.85,-93.18 -236.96,-172.67 86.63,-23.84 178.45,-34.02 270.01,-23.53 1.17,0.15 2.32,0.32 3.5,0.46 82.52,101.07 176.88,161.53 206.08,178.79 -24.56,-20.05 -93.65,-80.78 -158.62,-171.1 59.21,11.98 117.93,33.1 174.5,65.76 -63.1,-36.41 -125.52,-64.92 -187.63,-84.65 -44.77,-65.77 -85.64,-145.25 -105.66,-235.005 86.77,15.528 172.08,45.266 248.91,92.825 7.55,4.64 15.35,8.73 22.71,13.78 31.34,104.71 98.32,211.42 102.65,218.56 -12.43,-25.95 -43.18,-96.33 -64.33,-189.18 40.65,32.93 78.18,71.22 110.42,117.2 -36.17,-51.61 -74.38,-97.65 -115.04,-137.72 -16.29,-79.886 -23.64,-174.074 -6.54,-269.699 61.63,46.656 117.3,102.762 161.1,168.496 -0.63,3.528 -1.28,6.996 -1.88,10.485 -2.65,14.402 -4.29,29.515 -6.02,44.707 -9.82,92.841 3.77,201.631 4.7,209.961 -0.31,-31.96 1.87,-120.46 27.66,-224.864 24.98,44.544 44.79,92.904 57.6,145.474 -12.68,-60.42 -29.3,-116.931 -51.3,-168.661 21.9,-79.215 57.57,-164.977 116.33,-240.41 41.35,78.617 70.16,165.007 78.3,255.968 -71.93,102.663 -104.67,204.303 -113.83,236.833 l 0.16,0 c 4.99,-11.04 13.86,-29.32 26.7,-52.6 20.01,-36.6 49.52,-84.53 89.29,-134.64 0.18,36.8 -2.97,74.17 -10.19,111.91 9.82,-42.62 17.59,-84.62 21.38,-125.292 56.74,-68.707 132.27,-138.343 227.5,-184.261 5.56,89.992 -3.69,182.058 -33.97,269.563 z M 8251.62,971.664 c -74.17,-57.605 -156.76,-96.156 -250.49,-112.457 -0.11,-0.527 -0.23,-1.016 -0.31,-1.535 -8.89,-75.219 -2.67,-153.402 17.46,-234.063 82.92,19.789 163.27,50.246 234.93,95.766 2,1.289 3.99,2.656 5.97,4 1.49,0.945 2.99,1.934 4.48,2.926 -18.9,94.238 -9.88,184.82 10.16,263.437 -7.32,-6.199 -14.71,-12.273 -22.2,-18.074 z m 69.29,-265.644 c 2.25,-7.969 4,-16.032 6.61,-24.028 23.33,-70.535 60.89,-137.547 111.71,-201.027 54.77,47.23 103.88,100.699 142.69,161.461 2.84,4.5 5.54,9.105 8.33,13.66 -60.98,74.285 -95.11,158.18 -113.38,237.684 -38.62,-73.805 -89.7,-136.864 -155.96,-187.75 z m -829,1369 c -14.77,-4.05 -29.76,-8.51 -44.78,-13.12 0.34,-1.61 0.78,-3.2 1.19,-4.86 20.17,-83.7 48.29,-172.23 87.44,-256.68 71.19,35.72 143.04,57.56 215.62,65.62 7.71,0.83 15.4,2.22 23.15,2.75 16.79,1.17 33.27,1.02 49.58,0.43 -1.32,4.08 -2.82,8.03 -4.06,12.2 -1.35,4.57 -3.22,8.77 -4.47,13.41 -19.43,73.05 -26.32,148.29 -24.64,223.15 -91.05,1.16 -190.83,-13.19 -299.03,-42.9 z M 8857.7,519.566 c 36,73.704 62.48,151.942 73.3,232.965 0.19,1.793 0.38,3.637 0.56,5.442 -94.87,42.73 -166.42,109.093 -219.18,178.277 1.4,-97.016 -17.31,-188.125 -60.59,-273.164 55.59,-58.57 124.46,-106.254 205.91,-143.52 z m -68.96,1637.494 c -39.05,165.8 -152.71,319.64 -338.34,460.03 -68.29,-77.66 -132.7,-166.82 -179.01,-264.15 74.97,-43.82 137.27,-97.02 185.83,-160.25 168.11,-218.57 95.26,-520.36 74.87,-591.14 2.88,-2.05 5.8,-4.16 8.7,-6.41 13.75,15.06 30.98,30.82 52.91,47.3 0,0 21.04,-23.14 38.51,-55.55 0.02,0 0.07,-0.1 0.07,-0.1 2.81,1.07 5.97,2.05 8.94,3.1 10.89,3.77 22.48,7.39 35.63,10.66 0.74,0.18 1.38,0.35 2.13,0.56 0.63,0.15 1.2,0.23 1.74,0.44 3.72,0.93 7.05,2 11.12,2.83 0,0 9.62,-30.94 11.48,-68.58 10.26,-0.69 21.09,-1.92 32.76,-3.82 9.53,-1.53 18.97,-2.98 29.62,-5.44 0,0 -4.07,-30.37 -17.41,-64.09 8.52,-5 17.5,-10.81 26.67,-17.29 6.29,-4.45 12.4,-8.37 19.06,-13.57 0,0 -17.22,-26.78 -44.33,-52.18 9.99,-13.77 19.9,-30.09 29.89,-49.23 0.73,-1.27 1.39,-2.48 2.04,-3.77 0,0 -27.22,-17.21 -62.75,-28.81 3.33,-17.76 6.01,-37.31 6.75,-60.62 0,0 -3.14,-0.41 -7.96,-0.79 -1.77,-0.16 -3.61,-0.24 -5.83,-0.39 7.22,-5.71 16.01,-12.41 25.73,-19.59 34.8,-25.74 84.97,-58.96 146.42,-89.08 -21.2,47.7 -49.05,93.73 -85.05,136.75 39.8,-47.56 73.95,-95.63 101.9,-144.64 88.85,-41.21 197.88,-74.03 314.87,-67.33 265.56,15.04 533.6,213.27 797.6,588.88 -86.66,66.61 -168.67,122.89 -246.04,169.5 -93.02,-236.85 -222.51,-400.7 -387.44,-489.16 -58.77,-31.5 -119.12,-48.61 -177.91,-56.87 -183.19,-25.92 -394.17,58.47 -402.54,61.66 58.91,-16.55 331.01,-81.26 557.13,40.24 232.22,124.86 390.77,413.7 472.03,859.27 -122.54,27.09 -233.52,44.27 -333.94,52.8 15.27,-252.47 -32.95,-454.61 -144.66,-603.89 -164.84,-220.39 -519.79,-240.4 -528.39,-241.06 17.8,2.92 54.02,9.85 101.12,23.72 110.98,32.74 279.07,103.6 387.19,248.37 159.75,214.01 179.56,548.89 59.79,995.61 -120.99,-26.66 -227.52,-57.45 -321.28,-91.47 131.99,-232.81 179.19,-445.6 139.57,-635.33 -57.75,-276.05 -323.57,-416.09 -377.06,-441.73 29.43,19.96 118.27,85.41 197.97,186.96 56.37,71.82 107.83,161.48 129.49,265.79 54.05,260.15 -67.75,570.19 -361.8,922.08 -53.69,-37.46 -174.64,-127.28 -292.1,-252.58 193.71,-147.43 312.45,-310.15 353.93,-486.69 57.28,-244.66 -80.45,-460.8 -137.82,-537.58 0.09,0.13 0.19,0.5 0.19,0.5 0,0 -6.39,-8.71 -14.35,-17.28 16.48,28.37 51.55,94.62 79.32,182.53 32.12,101.54 53.77,230.58 23.04,360.88 z M 7637.13,939.195 c 15.19,81.815 42.7,154.835 82.14,218.265 -72.79,28.42 -140.87,69.02 -203.92,116.39 -42.48,-69.06 -78.71,-150.15 -108.73,-243.02 71.19,-35.268 149.23,-67.838 230.51,-91.635 z m 320.48,-34.847 c 13.3,66.066 38.27,125.072 69.41,176.592 9.41,17.1 20.03,34.02 31.68,50.8 -94.25,-21.37 -188.11,-20.7 -282.72,6.64 -0.64,-1 -1.34,-1.92 -2.01,-2.96 -39.62,-61.44 -65.68,-132.16 -78.84,-211.572 86.51,-20.176 175.41,-28.977 262.48,-19.5 z M 8408.19,2647.8 c -93.88,66.18 -203.98,129.31 -330.83,189.16 -22.24,-36.66 -105.13,-179.25 -166.43,-361.98 121.09,-20.43 226.35,-52.91 315.41,-97.42 47.59,100.12 112.87,191.1 181.85,270.24 z M 7543.68,1317.3 c 63.27,-48.68 132.03,-89.55 205.59,-116.74 34.02,42.93 74.28,77.78 117.37,106.04 34.95,22.88 71.63,41.5 108.28,56.52 -8.31,1.49 -16.55,2.97 -24.7,4.72 -88.76,18.97 -169.07,55.18 -240.18,112.77 -62.45,-40.69 -118,-94.96 -166.36,-163.31 z m 608.43,749.43 c -0.88,36.26 1.71,73.06 8.44,110.52 9.26,51.63 24.5,101.68 43.85,149.88 -86.55,44.18 -190.02,76.14 -309.93,96.04 -23.85,-79.97 -42.29,-165.89 -49.42,-252.94 91.46,-6.92 174.79,-29.08 249,-67.64 20.66,-10.72 39.88,-22.87 58.06,-35.86 z m -155.45,-457.41 c -11.41,10 -21.64,20.73 -32.19,31.29 -50.73,50.85 -91.12,108.01 -119.7,172.96 -21.72,1.32 -43.63,1.79 -65.9,0.15 -73.4,-5.19 -146.34,-26.29 -218.76,-62.26 39.1,-73.93 87.53,-142.9 147.6,-200.62 1.4,-1.39 2.77,-2.8 4.19,-4.16 0.9,0.53 1.71,1.08 2.6,1.55 92.25,51.18 191.24,64.85 282.16,61.09 z m -691.49,-49.87 c 0.53,-0.65 1.08,-1.36 1.57,-1.96 55.54,-70.74 120.76,-142.88 194.36,-205.82 42.24,59.87 90,109.38 142.67,149.49 7.89,6.05 15.58,12.44 23.69,17.98 -0.38,0.44 -0.78,0.75 -1.15,1.15 -61.54,60.64 -111.35,131.56 -151.51,206.91 -58.86,-34.54 -117.36,-79.61 -175.37,-134.35 -11.44,-10.8 -22.87,-21.8 -34.26,-33.4" /></g></g></svg>